<svg width="812" height="812" viewBox="0 0 812 812" fill="none" xmlns="http://www.w3.org/2000/svg">
<rect x="3" y="3" width="806" height="806" rx="403" fill="white" stroke="#000001" stroke-width="6"/>
<rect x="158" y="158" width="496" height="496" rx="248" fill="#2E3192"/>
<path d="M180.673 217.141L170.734 228.722L133.206 196.513L143.586 184.419C146.711 180.778 150.135 178.308 153.861 177.008C157.574 175.697 161.422 175.552 165.404 176.573C169.374 177.583 173.301 179.755 177.186 183.089C181.095 186.445 183.863 190.029 185.49 193.844C187.104 197.648 187.526 201.532 186.755 205.495C185.972 209.448 183.944 213.33 180.673 217.141ZM170.603 220.718L176.39 213.974C179.053 210.872 180.662 207.786 181.216 204.719C181.769 201.651 181.371 198.668 180.019 195.768C178.668 192.869 176.465 190.108 173.411 187.487C170.382 184.887 167.349 183.143 164.313 182.256C161.265 181.358 158.311 181.389 155.45 182.35C152.577 183.299 149.882 185.24 147.366 188.172L141.138 195.428L170.603 220.718ZM219.571 146.726C222.901 150.741 225.053 154.812 226.029 158.939C227.005 163.065 226.886 166.97 225.674 170.653C224.462 174.335 222.232 177.523 218.986 180.216C215.739 182.908 212.194 184.51 208.351 185.02C204.508 185.531 200.649 184.925 196.773 183.203C192.898 181.481 189.296 178.613 185.966 174.598C182.636 170.583 180.483 166.512 179.508 162.386C178.532 158.259 178.65 154.354 179.863 150.672C181.075 146.989 183.305 143.801 186.551 141.109C189.798 138.416 193.342 136.815 197.186 136.304C201.029 135.794 204.888 136.4 208.763 138.121C212.639 139.843 216.241 142.712 219.571 146.726ZM215.11 150.426C212.376 147.13 209.518 144.806 206.534 143.453C203.563 142.089 200.659 141.601 197.822 141.988C194.997 142.365 192.432 143.509 190.128 145.421C187.823 147.333 186.218 149.647 185.313 152.363C184.42 155.07 184.363 158.014 185.141 161.196C185.931 164.368 187.693 167.602 190.427 170.898C193.16 174.194 196.013 176.524 198.984 177.887C201.968 179.24 204.872 179.728 207.696 179.351C210.534 178.964 213.104 177.815 215.409 175.903C217.714 173.992 219.313 171.683 220.205 168.977C221.11 166.26 221.168 163.316 220.377 160.144C219.6 156.961 217.844 153.722 215.11 150.426ZM251.617 156.08L216.209 119L221.563 116.107L249.804 146.63L250.229 146.4L240.343 105.959L246.291 102.745L274.702 133.175L275.127 132.945L265.071 92.5964L270.425 89.7035L282.039 139.641L276.6 142.58L248.262 113.098L247.923 113.281L257.055 153.141L251.617 156.08ZM323.78 72.0144L338.321 119.283L332.782 120.987L295.607 91.7978L295.145 91.9398L306.563 129.053L300.839 130.814L286.297 83.5454L291.837 81.8413L329.132 111.094L329.594 110.952L318.148 73.7469L323.78 72.0144ZM349.91 116.651L342.577 67.7436L348.499 66.8556L355.045 110.51L377.779 107.101L378.567 112.354L349.91 116.651ZM427.481 87.1953C427.507 92.4112 426.587 96.9233 424.722 100.732C422.858 104.54 420.288 107.483 417.014 109.559C413.74 111.636 409.994 112.685 405.777 112.706C401.559 112.726 397.803 111.714 394.509 109.67C391.215 107.625 388.616 104.708 386.714 100.918C384.812 97.1283 383.848 92.6254 383.823 87.4096C383.797 82.1937 384.717 77.6816 386.582 73.8732C388.446 70.0647 391.016 67.1222 394.29 65.0455C397.564 62.9688 401.31 61.92 405.527 61.8993C409.745 61.8786 413.501 62.8905 416.795 64.935C420.089 66.9795 422.687 69.8967 424.59 73.6866C426.492 77.4766 427.456 81.9795 427.481 87.1953ZM421.686 87.2238C421.665 82.9416 420.931 79.3311 419.484 76.3921C418.052 73.4531 416.118 71.2329 413.679 69.7316C411.257 68.2302 408.549 67.4869 405.555 67.5016C402.56 67.5163 399.852 68.2862 397.428 69.8114C395.021 71.3364 393.108 73.5755 391.69 76.5285C390.288 79.4815 389.597 83.099 389.618 87.3811C389.639 91.6633 390.365 95.2739 391.796 98.2129C393.243 101.152 395.178 103.372 397.6 104.873C400.039 106.375 402.755 107.118 405.749 107.103C408.743 107.089 411.444 106.319 413.852 104.794C416.275 103.268 418.188 101.029 419.59 98.0765C421.008 95.1235 421.707 91.5059 421.686 87.2238ZM437.222 113.16L431.02 112.184L456.645 66.1531L462.752 67.114L473.004 118.79L466.802 117.814L458.673 74.3924L458.292 74.3323L437.222 113.16ZM442.515 94.4369L467.514 98.3704L466.688 103.618L441.689 99.6849L442.515 94.4369ZM494.841 125.676L480.341 120.917L495.763 73.9283L510.906 78.8984C515.464 80.3945 519.055 82.6153 521.681 85.561C524.311 88.4914 525.915 91.9916 526.494 96.0616C527.078 100.116 526.571 104.576 524.975 109.44C523.369 114.334 521.114 118.262 518.21 121.223C515.312 124.169 511.884 126.043 507.927 126.845C503.975 127.632 499.613 127.242 494.841 125.676ZM487.687 117.737L496.13 120.508C500.016 121.783 503.481 122.09 506.528 121.43C509.574 120.769 512.179 119.26 514.342 116.904C516.505 114.547 518.213 111.456 519.469 107.632C520.714 103.839 521.166 100.37 520.826 97.2255C520.49 94.0656 519.332 91.3474 517.352 89.0707C515.376 86.7788 512.553 85.0304 508.882 83.8255L499.796 80.8434L487.687 117.737ZM543.514 145.402L568.977 103.007L583.799 111.91C586.752 113.683 588.881 115.657 590.186 117.83C591.499 119.99 592.111 122.207 592.022 124.482C591.941 126.743 591.279 128.909 590.035 130.979C588.941 132.801 587.713 134.11 586.352 134.907C585.004 135.713 583.599 136.146 582.135 136.206C580.686 136.274 579.254 136.109 577.841 135.711L577.592 136.125C578.84 136.987 579.871 138.226 580.684 139.841C581.498 141.457 581.882 143.303 581.837 145.379C581.792 147.455 581.098 149.611 579.755 151.846C578.479 153.972 576.848 155.593 574.862 156.71C572.877 157.827 570.543 158.257 567.863 157.999C565.182 157.741 562.172 156.609 558.832 154.603L543.514 145.402ZM551.383 143.932L561.567 150.049C564.921 152.063 567.691 152.844 569.878 152.393C572.087 151.935 573.751 150.775 574.87 148.912C575.732 147.477 576.162 145.932 576.16 144.279C576.166 142.611 575.713 141.005 574.8 139.462C573.895 137.904 572.518 136.57 570.668 135.459L560.235 129.193L551.383 143.932ZM562.921 124.721L572.443 130.441C573.989 131.369 575.565 131.903 577.172 132.042C578.792 132.189 580.3 131.93 581.695 131.265C583.103 130.609 584.255 129.535 585.15 128.045C586.269 126.182 586.569 124.212 586.051 122.136C585.541 120.045 583.879 118.155 581.064 116.464L571.376 110.645L562.921 124.721ZM580.878 168.878L612.335 130.717L625.229 141.346C628.21 143.804 630.237 146.33 631.311 148.926C632.394 151.509 632.669 154.061 632.134 156.583C631.599 159.105 630.405 161.49 628.552 163.738C626.698 165.986 624.595 167.601 622.243 168.583C619.89 169.564 617.353 169.768 614.634 169.195C611.924 168.61 609.091 167.099 606.135 164.662L595.7 156.061L599.141 151.887L609.426 160.365C611.463 162.045 613.349 163.098 615.083 163.526C616.829 163.964 618.432 163.866 619.892 163.234C621.375 162.6 622.746 161.518 624.005 159.99C625.265 158.462 626.08 156.892 626.45 155.278C626.821 153.664 626.635 152.029 625.892 150.374C625.16 148.706 623.763 147.022 621.701 145.323L613.576 138.626L585.499 172.688L580.878 168.878ZM612.972 166.542L608.232 191.426L602.866 187.003L607.754 162.242L612.972 166.542ZM659.853 212.257C655.933 215.698 651.924 217.964 647.826 219.055C643.728 220.146 639.822 220.137 636.107 219.028C632.392 217.92 629.143 215.781 626.36 212.611C623.578 209.441 621.877 205.942 621.259 202.115C620.641 198.288 621.139 194.413 622.751 190.491C624.364 186.569 627.13 182.888 631.05 179.446C634.97 176.005 638.978 173.739 643.076 172.648C647.174 171.558 651.08 171.566 654.796 172.675C658.511 173.784 661.76 175.923 664.542 179.092C667.325 182.262 669.025 185.761 669.643 189.588C670.261 193.416 669.764 197.29 668.151 201.212C666.539 205.134 663.772 208.816 659.853 212.257ZM656.029 207.901C659.247 205.076 661.491 202.154 662.759 199.133C664.039 196.125 664.445 193.209 663.979 190.383C663.523 187.57 662.307 185.039 660.332 182.788C658.357 180.538 655.998 178.999 653.257 178.17C650.527 177.354 647.582 177.379 644.423 178.246C641.275 179.125 638.091 180.977 634.873 183.802C631.655 186.627 629.406 189.544 628.127 192.552C626.858 195.572 626.452 198.489 626.908 201.302C627.374 204.127 628.595 206.665 630.57 208.915C632.546 211.165 634.899 212.698 637.629 213.515C640.37 214.343 643.315 214.318 646.463 213.439C649.622 212.572 652.811 210.726 656.029 207.901ZM696.828 252.866L693.699 247.759C694.983 246.557 695.95 245.238 696.599 243.802C697.257 242.38 697.635 240.902 697.734 239.368C697.855 237.841 697.713 236.314 697.307 234.788C696.9 233.262 696.269 231.799 695.411 230.399C693.846 227.846 691.784 225.928 689.224 224.645C686.672 223.377 683.766 222.901 680.505 223.219C677.253 223.55 673.802 224.834 670.15 227.071C666.499 229.308 663.787 231.8 662.015 234.546C660.251 237.307 659.355 240.112 659.326 242.962C659.306 245.825 660.078 248.534 661.642 251.087C662.5 252.487 663.516 253.715 664.691 254.769C665.866 255.824 667.154 256.649 668.557 257.243C669.982 257.843 671.477 258.173 673.043 258.233C674.631 258.299 676.245 258.037 677.885 257.447L681.014 262.554C678.623 263.49 676.266 263.971 673.941 263.998C671.617 264.025 669.395 263.649 667.275 262.871C665.17 262.084 663.232 260.94 661.462 259.438C659.701 257.949 658.168 256.141 656.865 254.013C654.661 250.417 653.58 246.68 653.622 242.803C653.663 238.927 654.812 235.193 657.068 231.602C659.323 228.011 662.675 224.853 667.123 222.129C671.57 219.404 675.906 217.852 680.129 217.474C684.353 217.095 688.201 217.768 691.674 219.492C695.146 221.215 697.984 223.876 700.188 227.472C701.491 229.6 702.406 231.786 702.932 234.032C703.466 236.291 703.599 238.541 703.33 240.783C703.074 243.016 702.407 245.162 701.327 247.221C700.261 249.271 698.761 251.153 696.828 252.866ZM671.952 279.283L717.881 260.945L720.101 266.507L699.649 274.673L709.426 299.162L729.879 290.996L732.1 296.558L686.171 314.896L683.95 309.334L704.492 301.132L694.715 276.643L674.172 284.844L671.952 279.283ZM744.701 347.807L745.939 353.667L713.901 360.431C710.593 361.129 707.475 360.973 704.547 359.962C701.637 358.964 699.137 357.213 697.045 354.71C694.97 352.203 693.531 349.052 692.729 345.255C691.928 341.459 691.97 337.995 692.855 334.863C693.756 331.728 695.334 329.108 697.588 327.003C699.861 324.911 702.651 323.515 705.959 322.817L737.997 316.053L739.234 321.912L707.669 328.577C705.306 329.075 703.313 330.039 701.689 331.468C700.082 332.893 698.953 334.678 698.304 336.823C697.673 338.98 697.642 341.405 698.211 344.098C698.779 346.792 699.788 348.997 701.237 350.715C702.701 352.43 704.455 353.606 706.498 354.244C708.561 354.895 710.773 354.97 713.136 354.472L744.701 347.807ZM699.066 375.644L748.46 373.209L749.283 389.899C749.473 393.758 748.97 396.958 747.774 399.499C746.593 402.04 744.891 403.961 742.666 405.263C740.442 406.566 737.874 407.289 734.964 407.432C732.054 407.576 729.444 407.108 727.134 406.029C724.824 404.95 722.966 403.212 721.558 400.816C720.167 398.418 719.377 395.306 719.188 391.479L718.522 377.973L723.925 377.707L724.581 391.02C724.711 393.657 725.202 395.76 726.053 397.33C726.904 398.916 728.056 400.036 729.506 400.69C730.974 401.359 732.696 401.645 734.674 401.547C736.652 401.45 738.362 400.995 739.805 400.182C741.248 399.37 742.331 398.131 743.055 396.468C743.795 394.803 744.099 392.637 743.968 389.968L743.449 379.452L699.361 381.625L699.066 375.644ZM722.401 397.8L700.811 411.05L700.469 404.104L722.068 391.047L722.401 397.8ZM700.359 419.03L749.604 423.581L746.858 453.301L741.568 452.812L743.763 429.055L727.124 427.518L725.071 449.736L719.781 449.247L721.834 427.029L705.098 425.483L702.868 449.624L697.578 449.135L700.359 419.03ZM712.543 505.265L707.437 503.799L713.405 483.002L718.511 484.468L712.543 505.265ZM696.119 566.462C698.431 567.316 700.657 567.132 702.798 565.91C704.939 564.688 706.689 562.744 708.049 560.076C709.043 558.126 709.598 556.258 709.713 554.474C709.82 552.703 709.53 551.128 708.843 549.747C708.148 548.381 707.098 547.34 705.692 546.623C704.516 546.024 703.362 545.788 702.231 545.916C701.107 546.065 700.038 546.442 699.025 547.046C698.027 547.657 697.1 548.359 696.244 549.152C695.403 549.952 694.666 550.705 694.034 551.413L690.548 555.274C689.662 556.268 688.595 557.332 687.348 558.467C686.093 559.616 684.678 560.602 683.102 561.425C681.533 562.27 679.823 562.753 677.972 562.875C676.121 562.998 674.162 562.532 672.097 561.479C669.716 560.265 667.883 558.545 666.597 556.317C665.304 554.104 664.698 551.518 664.779 548.56C664.853 545.616 665.752 542.451 667.478 539.066C669.086 535.911 670.989 533.439 673.184 531.649C675.372 529.873 677.713 528.79 680.208 528.399C682.694 528.023 685.186 528.362 687.684 529.419L684.876 534.926C683.139 534.221 681.477 534.079 679.89 534.498C678.31 534.939 676.87 535.778 675.572 537.013C674.28 538.27 673.189 539.774 672.297 541.523C671.258 543.56 670.656 545.557 670.489 547.514C670.337 549.478 670.615 551.237 671.323 552.79C672.045 554.351 673.209 555.541 674.816 556.36C676.278 557.106 677.677 557.304 679.012 556.954C680.347 556.605 681.641 555.909 682.894 554.868C684.148 553.827 685.385 552.641 686.605 551.312L690.918 546.68C693.662 543.743 696.464 541.738 699.324 540.666C702.183 539.594 705.097 539.815 708.066 541.328C710.533 542.586 712.344 544.35 713.5 546.62C714.663 548.911 715.176 551.449 715.039 554.234C714.909 557.041 714.127 559.85 712.694 562.661C711.246 565.501 709.45 567.766 707.306 569.455C705.176 571.152 702.907 572.2 700.499 572.599C698.084 573.012 695.747 572.687 693.487 571.626L696.119 566.462ZM649.362 570.718L696.951 589.796L693.277 594.647L654.928 578.568L654.636 578.953L680.389 611.664L676.307 617.054L637.841 601.129L637.55 601.514L663.419 634.071L659.745 638.922L628.485 598.284L632.218 593.356L670.223 608.448L670.457 608.14L645.63 575.646L649.362 570.718ZM615.92 612.51L620.542 608.26L640.65 656.954L636.1 661.139L589.258 637.027L593.879 632.778L632.937 653.418L633.221 653.157L615.92 612.51ZM627.29 628.299L608.662 645.428L605.066 641.518L623.694 624.388L627.29 628.299ZM581.323 687.37C582.93 689.239 584.965 690.159 587.43 690.131C589.894 690.103 592.369 689.253 594.853 687.582C596.67 686.36 598.062 684.997 599.029 683.492C599.982 681.997 600.494 680.479 600.564 678.938C600.62 677.407 600.208 675.986 599.327 674.677C598.59 673.582 597.696 672.816 596.645 672.378C595.59 671.963 594.473 671.773 593.294 671.809C592.124 671.859 590.973 672.022 589.84 672.299C588.716 672.589 587.706 672.891 586.81 673.202L581.888 674.884C580.63 675.322 579.181 675.735 577.539 676.121C575.885 676.516 574.169 676.691 572.391 676.645C570.61 676.621 568.88 676.213 567.202 675.421C565.525 674.628 564.039 673.27 562.745 671.347C561.253 669.13 560.487 666.735 560.445 664.163C560.389 661.601 561.116 659.046 562.623 656.499C564.117 653.961 566.44 651.632 569.593 649.512C572.531 647.535 575.395 646.297 578.183 645.799C580.959 645.31 583.531 645.5 585.901 646.37C588.258 647.248 590.271 648.756 591.941 650.892L586.812 654.342C585.636 652.883 584.252 651.951 582.661 651.547C581.066 651.165 579.4 651.199 577.665 651.648C575.926 652.12 574.241 652.903 572.612 654C570.715 655.276 569.219 656.729 568.123 658.358C567.036 660.001 566.424 661.674 566.288 663.376C566.162 665.091 566.601 666.696 567.608 668.192C568.524 669.555 569.651 670.407 570.987 670.75C572.324 671.093 573.793 671.113 575.394 670.812C576.996 670.511 578.653 670.075 580.365 669.505L586.385 667.552C590.21 666.317 593.633 665.925 596.654 666.377C599.674 666.829 602.114 668.437 603.974 671.202C605.519 673.5 606.246 675.921 606.154 678.466C606.058 681.034 605.273 683.502 603.801 685.87C602.324 688.261 600.276 690.336 597.658 692.098C595.013 693.877 592.343 694.984 589.648 695.419C586.962 695.868 584.47 695.682 582.172 694.861C579.86 694.049 577.974 692.631 576.515 690.605L581.323 687.37ZM568.102 703.602L570.387 708.398L536.901 724.35L534.616 719.554L548.656 712.866L529.672 673.014L535.078 670.439L554.062 710.29L568.102 703.602ZM517.902 731.705L501.437 685.072L507.084 683.078L523.549 729.711L517.902 731.705ZM489.938 688.459L501.366 736.575L495.54 737.959L489.87 714.089L489.307 714.222L473.361 743.226L465.749 745.034L480.798 718.527L454.321 696.918L461.369 695.244L483.409 713.638L487.817 705.443L484.112 689.843L489.938 688.459ZM425.661 699.858L431.938 699.732L414.773 749.541L408.593 749.664L389.447 700.583L395.724 700.458L411.333 741.784L411.719 741.776L425.661 699.858ZM423.73 719.219L398.429 719.726L398.322 714.414L423.624 713.907L423.73 719.219ZM345.989 728.753C346.291 730.436 346.783 731.976 347.467 733.372C348.132 734.781 348.991 736.022 350.044 737.095C351.081 738.166 352.308 739.044 353.724 739.729C355.141 740.414 356.734 740.88 358.503 741.127C361.405 741.531 364.148 741.149 366.733 739.982C369.318 738.814 371.515 736.869 373.324 734.147C375.134 731.424 376.335 727.942 376.926 723.701C377.517 719.46 377.306 715.782 376.293 712.666C375.281 709.55 373.667 707.074 371.453 705.238C369.238 703.401 366.616 702.272 363.586 701.85C360.78 701.459 358.225 701.712 355.922 702.611C353.601 703.522 351.689 704.995 350.187 707.029C348.666 709.076 347.697 711.599 347.279 714.596L345.515 713.96L360.247 716.013L359.514 721.275L340.859 718.676L341.592 713.414C342.155 709.38 343.504 705.992 345.642 703.25C347.763 700.507 350.445 698.523 353.688 697.301C356.912 696.092 360.469 695.759 364.36 696.301C368.696 696.906 372.365 698.457 375.365 700.956C378.349 703.452 380.496 706.709 381.805 710.728C383.099 714.744 383.385 719.335 382.666 724.501C382.126 728.376 381.122 731.787 379.655 734.736C378.169 737.699 376.317 740.139 374.1 742.056C371.882 743.974 369.384 745.333 366.607 746.132C363.83 746.932 360.871 747.113 357.73 746.675C355.147 746.315 352.794 745.589 350.671 744.497C348.529 743.418 346.68 742.047 345.124 740.384C343.55 738.734 342.309 736.846 341.403 734.721C340.494 732.611 339.982 730.337 339.866 727.899L345.989 728.753ZM334.382 691.842L319.833 739.108L303.862 734.192C300.169 733.056 297.333 731.492 295.351 729.501C293.366 727.525 292.14 725.27 291.674 722.735C291.208 720.199 291.403 717.539 292.26 714.754C293.118 711.969 294.447 709.675 296.249 707.872C298.05 706.068 300.318 704.913 303.051 704.407C305.779 703.916 308.974 704.234 312.636 705.361L325.56 709.34L323.969 714.509L311.229 710.588C308.706 709.811 306.561 709.555 304.795 709.82C303.014 710.08 301.569 710.781 300.459 711.922C299.33 713.073 298.474 714.595 297.892 716.488C297.309 718.38 297.154 720.143 297.426 721.777C297.698 723.41 298.493 724.85 299.81 726.098C301.122 727.361 303.056 728.386 305.61 729.172L315.672 732.269L328.658 690.081L334.382 691.842ZM305.598 706.227L300.502 681.414L307.149 683.46L312.06 708.216L305.598 706.227ZM244.838 681.732C247.159 677.061 250.008 673.443 253.386 670.879C256.763 668.315 260.381 666.841 264.239 666.457C268.096 666.073 271.914 666.819 275.691 668.696C279.469 670.573 282.369 673.164 284.393 676.471C286.418 679.778 287.428 683.551 287.424 687.792C287.42 692.032 286.258 696.488 283.937 701.159C281.616 705.83 278.767 709.448 275.39 712.012C272.012 714.576 268.395 716.051 264.537 716.435C260.679 716.819 256.861 716.072 253.084 714.196C249.307 712.319 246.406 709.727 244.382 706.42C242.358 703.114 241.347 699.34 241.351 695.1C241.355 690.859 242.517 686.403 244.838 681.732ZM250.028 684.311C248.123 688.146 247.156 691.701 247.128 694.977C247.086 698.246 247.817 701.099 249.321 703.535C250.81 705.965 252.895 707.846 255.577 709.178C258.258 710.511 261.024 711.04 263.874 710.767C266.71 710.486 269.425 709.345 272.019 707.345C274.599 705.337 276.841 702.415 278.747 698.58C280.652 694.745 281.626 691.194 281.668 687.925C281.696 684.649 280.965 681.796 279.476 679.367C277.973 676.93 275.88 675.045 273.198 673.713C270.517 672.38 267.758 671.855 264.922 672.135C262.072 672.409 259.357 673.55 256.777 675.557C254.183 677.558 251.934 680.476 250.028 684.311ZM196.978 679.628L226.697 640.099L231.483 643.698L201.765 683.227L196.978 679.628ZM155.048 641.124L189.152 605.31L193.349 609.307L186.088 656.011L186.437 656.344L213.215 628.224L217.551 632.354L183.447 668.168L179.25 664.171L186.508 617.331L186.159 616.998L159.315 645.187L155.048 641.124ZM172.149 584.191L181.277 596.422L141.642 626L132.11 613.227C129.241 609.382 127.579 605.5 127.125 601.581C126.658 597.671 127.358 593.885 129.224 590.222C131.078 586.569 134.056 583.211 138.159 580.15C142.287 577.069 146.391 575.151 150.469 574.398C154.534 573.654 158.416 574.092 162.114 575.711C165.8 577.339 169.145 580.166 172.149 584.191ZM173.438 594.8L168.123 587.678C165.677 584.401 163.018 582.157 160.146 580.946C157.274 579.735 154.275 579.472 151.15 580.157C148.026 580.841 144.85 582.387 141.625 584.794C138.425 587.182 136.061 589.76 134.531 592.529C132.989 595.307 132.373 598.197 132.685 601.198C132.984 604.209 134.288 607.263 136.599 610.36L142.318 618.023L173.438 594.8ZM94.1253 550.398L91.3977 545.067L120.549 530.153C123.558 528.613 126.608 527.948 129.699 528.157C132.768 528.359 135.639 529.394 138.313 531.263C140.973 533.139 143.186 535.804 144.954 539.258C146.721 542.712 147.587 546.067 147.552 549.321C147.503 552.583 146.666 555.525 145.042 558.146C143.395 560.761 141.068 562.838 138.058 564.377L108.907 579.291L106.179 573.96L134.9 559.266C137.05 558.166 138.721 556.714 139.914 554.91C141.093 553.114 141.715 551.096 141.781 548.856C141.825 546.609 141.22 544.261 139.966 541.81C138.712 539.359 137.161 537.494 135.314 536.216C133.452 534.944 131.451 534.268 129.312 534.187C127.151 534.099 124.996 534.605 122.846 535.704L94.1253 550.398ZM87.274 497.276C85.0352 498.306 83.5897 500.009 82.9377 502.385C82.2856 504.762 82.4206 507.375 83.3427 510.224C84.0169 512.307 84.9437 514.021 86.1233 515.365C87.2979 516.694 88.6161 517.604 90.078 518.095C91.535 518.571 93.014 518.566 94.5149 518.08C95.7709 517.674 96.754 517.026 97.4643 516.136C98.1544 515.236 98.6444 514.214 98.9344 513.071C99.2091 511.933 99.3693 510.781 99.4151 509.616C99.4456 508.456 99.4345 507.402 99.3817 506.454L99.1216 501.259C99.0466 499.93 99.0496 498.423 99.1305 496.738C99.2064 495.039 99.5115 493.341 100.046 491.645C100.559 489.939 101.428 488.389 102.652 486.995C103.876 485.6 105.591 484.546 107.796 483.832C110.339 483.009 112.852 482.932 115.335 483.6C117.814 484.253 120.07 485.655 122.103 487.806C124.131 489.941 125.73 492.817 126.899 496.431C127.99 499.801 128.391 502.894 128.101 505.712C127.807 508.515 126.915 510.936 125.426 512.974C123.932 514.998 121.928 516.517 119.415 517.534L117.511 511.653C119.238 510.924 120.515 509.851 121.342 508.433C122.149 507.004 122.575 505.394 122.621 503.603C122.647 501.801 122.358 499.965 121.753 498.097C121.049 495.922 120.065 494.083 118.8 492.58C117.52 491.083 116.081 490.034 114.483 489.435C112.869 488.84 111.204 488.821 109.489 489.376C107.927 489.881 106.797 490.729 106.099 491.92C105.401 493.11 104.977 494.516 104.825 496.139C104.673 497.762 104.635 499.475 104.711 501.277L104.931 507.602C105.064 511.62 104.497 515.019 103.231 517.797C101.964 520.576 99.7457 522.479 96.5752 523.505C93.9408 524.358 91.4129 524.389 88.9914 523.599C86.5496 522.799 84.3934 521.365 82.5227 519.297C80.6317 517.218 79.2004 514.678 78.2288 511.676C77.2473 508.643 76.9186 505.772 77.2426 503.061C77.5513 500.355 78.4169 498.011 79.8393 496.028C81.2568 494.029 83.1402 492.607 85.4894 491.763L87.274 497.276ZM75.3117 480.065L70.0711 480.936L63.9898 444.347L69.2304 443.476L71.7801 458.817L115.325 451.579L116.307 457.487L72.762 464.724L75.3117 480.065ZM112.14 427.083L62.6933 427.982L62.3897 411.274C62.3195 407.411 62.9218 404.228 64.1966 401.725C65.4553 399.223 67.2167 397.355 69.4806 396.123C71.7446 394.89 74.3332 394.247 77.2466 394.194C80.1599 394.142 82.7541 394.69 85.0292 395.84C87.3043 396.99 89.108 398.785 90.4404 401.224C91.7567 403.664 92.4497 406.799 92.5193 410.63L92.765 424.15L87.3569 424.249L87.1146 410.921C87.0667 408.282 86.6418 406.164 85.8399 404.568C85.0378 402.957 83.9219 401.802 82.4923 401.103C81.0463 400.389 79.3334 400.05 77.3536 400.086C75.3739 400.122 73.6503 400.523 72.1829 401.291C70.7156 402.058 69.5943 403.262 68.819 404.902C68.0277 406.543 67.6563 408.699 67.7048 411.371L67.8961 421.897L112.031 421.095L112.14 427.083ZM89.5045 404.212L111.496 391.64L111.622 398.593L89.6274 410.972L89.5045 404.212ZM63.1979 373.494L112.474 377.687L111.967 383.654L62.6902 379.461L63.1979 373.494ZM114.082 365.806L65.4658 356.74L70.9374 327.399L76.1598 328.373L71.7862 351.827L88.2132 354.89L92.3036 332.956L97.526 333.93L93.4357 355.864L109.958 358.945L114.402 335.112L119.625 336.085L114.082 365.806ZM95.9425 288.56C93.5325 288.047 91.3557 288.549 89.4122 290.064C87.4687 291.58 86.0151 293.756 85.0515 296.591C84.3468 298.663 84.0656 300.591 84.2078 302.374C84.3552 304.141 84.868 305.659 85.7463 306.927C86.6298 308.179 87.8184 309.059 89.3122 309.567C90.562 309.992 91.7376 310.06 92.8389 309.771C93.9302 309.462 94.9337 308.936 95.8493 308.193C96.7497 307.445 97.5666 306.617 98.3 305.71C99.0181 304.798 99.6391 303.947 100.163 303.156L103.06 298.835C103.794 297.725 104.698 296.518 105.769 295.216C106.846 293.899 108.105 292.72 109.547 291.68C110.979 290.62 112.602 289.896 114.417 289.51C116.231 289.123 118.236 289.303 120.431 290.049C122.961 290.909 125.022 292.349 126.614 294.37C128.211 296.375 129.181 298.847 129.525 301.787C129.874 304.711 129.438 307.972 128.215 311.569C127.075 314.922 125.547 317.642 123.631 319.728C121.72 321.799 119.558 323.206 117.145 323.95C114.738 324.679 112.223 324.7 109.6 324.013L111.59 318.16C113.41 318.608 115.075 318.511 116.586 317.869C118.086 317.205 119.391 316.169 120.499 314.761C121.597 313.332 122.462 311.687 123.094 309.828C123.829 307.663 124.139 305.601 124.024 303.64C123.893 301.674 123.366 299.973 122.443 298.537C121.504 297.096 120.181 296.086 118.474 295.505C116.92 294.977 115.507 294.981 114.236 295.518C112.965 296.056 111.784 296.929 110.693 298.14C109.601 299.35 108.547 300.7 107.53 302.191L103.926 307.393C101.631 310.694 99.1448 313.079 96.4685 314.55C93.7921 316.021 90.8764 316.22 87.7213 315.147C85.0997 314.256 83.0543 312.77 81.5852 310.69C80.106 308.589 79.2346 306.15 78.971 303.374C78.6974 300.577 79.0683 297.685 80.0838 294.698C81.1096 291.68 82.5626 289.181 84.4426 287.202C86.3074 285.217 88.4027 283.855 90.7286 283.115C93.0596 282.361 95.4193 282.347 97.8077 283.073L95.9425 288.56ZM131.799 236.838L136.41 239.477L125.662 258.255L121.051 255.616L131.799 236.838Z" fill="#EC141E"/>
<g clip-path="url(#clip0_15_14)">
<path d="M335 476.882L475 336.882" stroke="#FFCB05" stroke-width="30" stroke-linejoin="round"/>
<path d="M473.977 472.966L473.158 323.433" stroke="#FFCB05" stroke-width="30" stroke-linejoin="round"/>
<path d="M353.936 339.086L473.157 338.433" stroke="#FFCB05" stroke-width="30" stroke-linecap="square" stroke-linejoin="round"/>
</g>
<defs>
<clipPath id="clip0_15_14">
<rect width="171" height="166" fill="white" transform="translate(321 323)"/>
</clipPath>
</defs>
</svg>
